<?xml version="1.0" standalone="no"?><!DOCTYPE svg PUBLIC "-//W3C//DTD SVG 1.1//EN" "http://www.w3.org/Graphics/SVG/1.1/DTD/svg11.dtd"><svg t="1571113241732" class="icon" viewBox="0 0 1024 1024" version="1.1" xmlns="http://www.w3.org/2000/svg" p-id="1719" xmlns:xlink="http://www.w3.org/1999/xlink" width="200" height="200"><defs><style type="text/css"></style></defs><path d="M368.316 375.286c-22.277 21.67-1.233 34.69 3.72 37.156 0.627 0.627 1.254 0.627 1.88 0.627 23.51 4.953 26.604-14.252 26.604-21.671 0-1.88 0.627-3.114 1.88-4.347 2.467-2.466 6.186-3.72 9.28-1.86 6.185 3.093 12.37 6.207 17.972 8.673 1.839 0.627 4.325 0.627 6.185 0a168.082 168.082 0 0 1 74.314-17.345 170.736 170.736 0 0 1 68.733 14.252c3.72 1.86 8.046 3.72 11.765 5.58 7.44 3.72 14.859 8.672 21.672 13.625a7.523 7.523 0 0 0 9.905-0.627l29.738-29.717a7.126 7.126 0 0 0 0-10.532l-19.832-21.671a7.628 7.628 0 0 1-1.233-8.673c8.673-14.859 32.81-61.315 19.205-106.517-22.298-74.94-75.546-100.331-112.096-109.004-8.046-1.86-12.999 9.3-5.58 13.626 96.005 61.92 73.707 136.881 61.941 162.878-2.487 4.953-8.672 5.58-12.392 1.86l-80.5-82.38a7.126 7.126 0 0 1 0-10.511l25.392-28.505c2.466-3.093 2.466-8.046-0.627-10.512L512.616 157.3c-3.092-2.487-7.418-2.487-9.905 0l-11.766 10.533a7.022 7.022 0 0 1-4.953 1.86h-29.737c-1.84 0-4.326 0.626-5.56 2.465l-65.034 66.268a7.377 7.377 0 0 0 0.627 11.138l33.437 30.365a8.38 8.38 0 0 0 10.533 0l17.345-16.718c3.093-3.114 7.419-2.508 10.512 0l82.38 80.499c3.698 3.72 3.092 9.905-1.881 11.765-64.993 34.69-123.215-17.345-139.954-34.063-2.466-3.093-7.419-3.093-10.512-0.627l-17.972 15.485a7.126 7.126 0 0 0-0.627 10.533l16.718 20.438-3.072 4.326c-10.532-0.627-14.879 3.72-14.879 3.72zM58.065 553.023l5.58 0.627 1.233-5.58c5.559-28.484 20.438-53.875 42.736-73.686l1.84-1.881V69.38H913.92v402.537l1.86 1.86c19.811 16.718 34.064 39.643 40.876 64.407a13.145 13.145 0 0 0 14.838 9.279 12.664 12.664 0 0 0 11.16-12.372V0H40.092v535.677c1.254 9.3 8.066 16.719 17.972 17.346z m135 161.018c-107.143 0-160.391 93.519-176.503 130.048-3.7 8.673-6.186 17.973-6.186 27.251a66.33 66.33 0 0 0 66.246 66.247H256.24a7.147 7.147 0 0 0 7.42-7.419c0.626-21.671 8.066-86.079 66.873-136.86a7.732 7.732 0 0 0 1.253-10.533c-29.11-34.69-74.313-68.754-138.72-68.754z m814.373 129.422c4.326 8.672 6.186 17.972 6.186 27.25a66.33 66.33 0 0 1-66.246 66.268H766.527c-4.326 0-7.44-3.72-7.44-8.046 1.254-21.671-2.466-83.592-66.247-134.374a7.732 7.732 0 0 1-1.253-10.532c28.484-35.945 74.313-70.614 139.347-70.614 107.144 0 160.392 93.518 176.504 130.048zM107.405 659.749A122.002 122.002 0 1 1 279.94 487.194 122.002 122.002 0 0 1 107.405 659.75z m601.882-67.355a122.002 122.002 0 1 1 240.85-39.079 122.002 122.002 0 0 1-240.85 39.08z m-368.222-45.557c0-20.417 3.72-40.856 10.533-58.807h-50.782a135.272 135.272 0 0 1 27.25 58.828h13.02z m340.637 0a165.49 165.49 0 0 0-10.554-58.807h51.41a135.272 135.272 0 0 0-27.252 58.828h-13.625z m53.248 343.73c5.559 11.138 8.046 22.904 8.046 35.296 0 45.83-37.157 83.592-83.592 83.592H362.736c-45.829 0-83.592-37.157-83.592-83.592 0-12.392 2.466-24.158 7.42-35.317 21.67-46.436 89.17-164.718 224.172-164.718 135.627 0 203.128 118.282 224.193 164.739z m-378.4-343.73a154.812 154.812 0 1 1 309.646 0 154.812 154.812 0 0 1-309.645 0z" p-id="1720"></path></svg>